<?xml version="1.0" standalone="no"?>
<!DOCTYPE svg PUBLIC "-//W3C//DTD SVG 20010904//EN"
 "http://www.w3.org/TR/2001/REC-SVG-20010904/DTD/svg10.dtd">
<svg version="1.0" xmlns="http://www.w3.org/2000/svg"
 width="411.000000pt" height="415.000000pt" viewBox="0 0 411.000000 415.000000"
 preserveAspectRatio="xMidYMid meet">
<metadata>
Created by potrace 1.16, written by Peter Selinger 2001-2019
</metadata>
<g transform="translate(0.000000,415.000000) scale(0.100000,-0.100000)"
fill="#000000" stroke="none">
<path d="M2550 3599 c-24 -13 -56 -19 -100 -19 -60 0 -171 -18 -212 -35 -9 -4
-41 0 -72 9 -30 9 -74 15 -98 15 l-43 -1 55 -9 c30 -4 73 -15 95 -23 37 -13
38 -15 12 -15 -16 -1 -36 3 -45 8 -26 14 -172 20 -159 7 5 -6 35 -11 67 -11
79 -1 153 -48 79 -51 -24 -1 -29 2 -24 15 5 12 3 13 -5 5 -12 -12 -50 -7 -50
5 0 4 -6 8 -14 8 -8 0 -13 -8 -11 -19 3 -11 -2 -18 -12 -18 -13 0 -13 3 -3 15
7 8 10 16 6 16 -23 5 -32 3 -39 -6 -5 -6 -13 -3 -22 9 -11 15 -15 16 -15 5 0
-8 6 -21 13 -28 10 -11 8 -11 -10 -2 -13 6 -23 8 -23 4 0 -4 -6 1 -12 11 -8
15 -7 22 6 31 9 7 16 16 16 20 0 5 -8 0 -19 -9 -11 -10 -34 -16 -57 -16 -22 1
-71 -3 -111 -7 -60 -7 -78 -14 -104 -38 -48 -47 -78 -114 -44 -101 10 3 15 -1
15 -12 0 -13 2 -14 9 -4 7 11 10 10 15 -3 9 -26 7 -42 -4 -25 -5 8 -10 11 -10
5 0 -5 4 -17 10 -25 8 -12 10 -12 16 3 9 25 26 21 20 -5 -4 -15 -1 -13 8 6 14
30 31 21 19 -10 -4 -12 -3 -15 5 -10 7 4 12 17 12 29 0 16 3 19 9 8 5 -7 14
-10 20 -7 8 5 8 0 1 -19 -6 -15 -10 -34 -10 -43 1 -13 29 50 30 66 0 1 4 2 9
2 15 0 22 -32 11 -45 -6 -7 -7 -16 -2 -19 4 -3 14 11 21 30 8 22 19 34 31 34
12 0 17 -5 14 -13 -3 -8 2 -14 11 -14 8 0 15 4 15 9 0 4 5 8 11 8 5 0 7 -4 4
-10 -3 -5 0 -7 8 -4 8 3 18 0 22 -6 6 -9 10 -9 16 1 7 11 10 9 15 -9 5 -16 11
-21 25 -17 30 10 22 -14 -8 -26 -59 -23 -114 -53 -136 -74 -12 -12 -30 -21
-39 -19 -10 1 -18 -2 -18 -8 0 -6 -6 -5 -15 2 -11 10 -18 10 -29 1 -11 -9 -15
-9 -19 1 -4 9 -6 8 -6 -3 -1 -9 6 -22 14 -29 8 -7 15 -21 15 -31 0 -12 5 -16
15 -13 17 7 21 44 5 44 -5 0 -10 7 -10 16 0 13 3 14 13 5 8 -6 16 -8 19 -6 3
3 3 -7 1 -22 -9 -47 -53 -72 -53 -29 0 13 -6 26 -14 29 -17 7 -36 -11 -36 -34
0 -9 -7 -22 -15 -29 -12 -10 -12 -15 2 -38 9 -15 26 -35 37 -45 21 -18 20 -18
-44 -15 -89 5 -167 44 -246 122 -105 105 -145 227 -110 334 13 37 24 53 44 61
33 12 108 18 118 8 10 -10 58 -9 69 2 6 5 27 14 48 21 52 16 43 21 -15 8 -36
-9 -51 -8 -63 2 -23 19 -18 30 13 30 23 1 20 3 -18 17 -113 39 -354 -37 -498
-159 -88 -75 -166 -177 -222 -293 -57 -116 -82 -191 -112 -330 -30 -136 -32
-467 -4 -620 54 -299 197 -629 335 -776 35 -38 75 -76 89 -85 22 -15 22 -12
-11 48 -20 34 -44 90 -55 123 -11 33 -31 84 -45 113 -24 52 -24 55 -10 110 20
75 49 131 76 143 14 6 47 7 87 2 l65 -8 6 -95 c12 -190 103 -365 273 -528 l66
-64 -22 -19 c-35 -29 -116 -53 -132 -40 -9 8 -31 9 -67 3 -30 -4 -79 -4 -109
1 -69 10 -89 4 -119 -36 -14 -17 -18 -26 -11 -19 15 13 50 17 50 4 0 -4 -10
-12 -22 -17 -12 -6 -23 -20 -25 -33 -3 -22 -2 -22 13 -7 9 9 23 14 31 11 8 -3
17 -6 20 -6 3 0 0 -7 -7 -15 -7 -8 -16 -12 -21 -9 -5 3 -12 -3 -16 -13 -4 -10
-11 -21 -16 -24 -5 -4 -5 -9 1 -13 6 -3 14 3 17 14 5 17 12 20 35 15 22 -5 32
-2 41 14 13 19 13 19 38 0 18 -15 26 -17 32 -7 4 7 5 16 3 20 -3 4 9 8 25 8
37 0 40 -7 9 -19 -19 -7 -17 -9 14 -8 27 1 35 4 27 13 -6 7 -5 15 5 23 9 8 15
8 18 2 3 -12 65 -22 85 -14 7 3 13 10 13 16 0 7 -4 7 -12 -1 -18 -18 -33 -15
-18 3 11 14 10 14 -13 6 -18 -7 -28 -7 -33 1 -4 6 -3 8 3 5 12 -8 36 16 27 26
-4 3 -4 14 0 23 6 15 8 15 24 1 25 -22 100 -28 87 -7 -3 5 -13 6 -23 3 -14 -6
-15 -4 -4 9 7 9 11 22 10 29 -2 8 7 14 20 15 12 1 26 5 30 9 4 5 -1 5 -11 2
-11 -4 -16 -3 -12 3 3 5 14 8 23 7 29 -5 63 -28 57 -38 -4 -5 -11 -7 -16 -4
-5 4 -9 1 -9 -5 0 -6 -5 -8 -10 -5 -8 5 -7 11 1 21 17 21 -4 17 -28 -5 -12
-11 -24 -17 -29 -13 -4 4 -4 1 0 -6 6 -11 11 -11 23 0 14 11 15 10 8 -12 -4
-14 -16 -36 -27 -50 -21 -26 -91 -55 -114 -46 -8 3 -14 1 -14 -4 0 -6 -10 -11
-22 -11 -14 -1 -17 -3 -7 -6 8 -2 43 3 77 11 34 8 62 11 62 6 0 -10 -26 -20
-51 -20 -27 0 -24 -18 5 -31 28 -13 75 -6 126 19 l34 17 76 -76 c114 -115 225
-159 400 -159 176 0 285 43 403 160 l77 78 0 -40 c0 -41 21 -83 51 -99 17 -9
18 -7 9 16 -13 33 -13 31 6 49 23 24 39 19 41 -11 0 -15 7 -29 13 -31 7 -3 22
-16 34 -29 33 -38 51 -45 52 -20 3 36 31 101 38 88 4 -6 25 -11 46 -11 35 0
40 -3 46 -27 14 -52 23 9 17 113 -3 55 -4 119 -4 144 1 25 -8 70 -20 102 -16
43 -18 61 -10 76 17 32 13 87 -8 113 l-19 24 4 -30 c2 -17 1 -24 -2 -17 -8 16
-24 16 -24 -1 0 -8 -7 -14 -15 -14 -17 0 -20 13 -5 22 15 9 94 170 115 233 9
29 20 95 24 145 l6 92 65 8 c85 10 105 0 134 -66 40 -90 41 -134 6 -208 -16
-35 -30 -72 -30 -82 0 -9 -21 -59 -46 -109 -51 -102 -47 -102 53 -2 71 71 94
106 164 244 321 640 266 1390 -131 1763 -122 115 -264 178 -430 193 -47 4 -74
2 -100 -10 -34 -15 -34 -15 -7 -16 30 0 35 -11 12 -30 -10 -8 -29 -10 -58 -6
l-42 7 40 -21 c39 -20 85 -26 99 -13 9 9 96 3 118 -8 47 -25 68 -129 43 -215
-34 -117 -117 -211 -240 -270 -57 -28 -81 -34 -133 -34 l-63 0 21 29 c32 47
51 111 52 179 0 51 3 62 15 58 8 -3 11 -1 8 4 -11 18 -67 42 -128 54 -34 7
-63 18 -65 24 -14 42 119 8 181 -45 l42 -37 -32 35 c-21 22 -33 46 -34 64 l-1
30 -8 -30 -8 -30 -1 27 c-1 26 -4 27 -48 26 -72 -1 -85 1 -78 12 16 27 173 62
158 36 -3 -6 0 -6 8 2 7 6 24 13 39 13 18 1 15 3 -13 9 -50 9 -131 -4 -173
-30 -61 -35 -111 -17 -63 23 20 17 21 19 4 13 -12 -4 -16 -4 -10 1 70 61 162
103 177 81 6 -10 8 -10 8 -1 0 7 24 24 53 38 30 14 62 35 73 47 19 22 18 22
-11 -1 -39 -30 -80 -46 -150 -61 -31 -6 -66 -21 -77 -32 -29 -29 -63 -20 -63
17 0 41 36 56 156 65 65 4 105 12 123 23 14 10 26 20 26 22 0 3 -1 4 -2 4 -2
-1 -19 -10 -38 -20z m-1102 -45 c13 -4 22 -14 22 -25 0 -10 9 -23 21 -29 11
-7 18 -14 15 -18 -4 -3 -19 7 -35 22 -25 24 -34 26 -67 21 -59 -10 -75 -16
-69 -25 3 -4 -4 -6 -15 -3 -13 4 -20 0 -20 -10 0 -8 -8 -17 -17 -21 -29 -10
-88 -56 -89 -69 0 -14 -81 -100 -109 -117 -17 -10 -17 -11 -2 -6 15 5 14 0 -7
-25 -14 -17 -26 -35 -26 -41 0 -6 -24 -59 -54 -117 -29 -58 -59 -123 -66 -143
-6 -21 -17 -38 -23 -38 -7 0 -6 -4 3 -10 12 -8 12 -10 -5 -10 -17 0 -17 -2 -5
-10 12 -8 12 -10 -5 -10 -15 0 -17 -2 -6 -9 21 -13 6 -65 -17 -57 -13 5 -13 3
2 -9 11 -8 15 -15 9 -15 -6 0 -10 -8 -8 -17 1 -10 -3 -33 -11 -50 -7 -18 -10
-33 -6 -33 4 0 0 -5 -8 -10 -8 -5 -10 -10 -4 -10 6 0 9 -13 6 -31 -3 -22 -9
-29 -20 -24 -12 4 -13 3 -2 -10 10 -12 10 -15 -1 -15 -12 0 -12 -2 0 -9 9 -6
11 -18 7 -36 -9 -37 -31 -25 -30 16 3 65 8 99 16 99 4 0 5 6 2 14 -3 8 0 34 7
57 7 24 13 53 14 64 2 37 16 66 28 58 9 -5 9 -3 0 8 -9 11 -10 25 -2 52 5 20
10 40 10 44 1 5 5 16 11 26 5 10 11 26 13 35 20 85 108 257 175 340 43 53 47
62 29 62 -11 0 -17 -5 -14 -10 3 -6 -4 -14 -17 -19 -13 -6 -17 -10 -10 -10 25
-2 1 -21 -26 -22 l-27 -1 25 -8 25 -8 -25 -2 c-14 -1 -34 -6 -45 -11 -16 -7
-13 -8 13 -4 17 2 32 0 32 -5 0 -6 -11 -10 -24 -10 -14 0 -28 -5 -32 -12 -5
-8 0 -9 15 -5 14 3 21 1 18 -6 -2 -7 -23 -15 -48 -18 l-44 -6 38 -1 c46 -2 41
-21 -6 -23 l-32 -1 30 -8 c30 -7 25 -13 -20 -23 -14 -3 -12 -5 8 -6 41 -2 23
-21 -21 -23 l-37 -1 33 -4 c36 -5 36 -4 21 -35 -8 -18 -18 -23 -42 -22 -28 1
-29 1 -4 -3 17 -3 27 -9 24 -16 -2 -7 -16 -48 -31 -93 -25 -75 -29 -80 -54
-79 -19 2 -20 1 -4 -2 37 -7 28 -33 -10 -28 l-33 5 34 -13 c40 -15 27 -33 -15
-23 -17 5 -23 3 -19 -4 3 -5 15 -10 25 -10 23 0 31 -12 21 -28 -6 -10 -15 -10
-37 -2 -27 9 -28 9 -10 -5 11 -8 26 -15 34 -15 8 0 11 -7 8 -17 -3 -10 -10
-40 -15 -66 -11 -58 -16 -65 -38 -45 -10 8 -25 18 -33 22 -8 4 -1 -4 15 -18
17 -14 33 -26 38 -26 4 0 7 -7 7 -15 0 -21 -20 -19 -47 7 -13 12 -23 17 -23
12 0 -5 14 -18 30 -29 16 -11 30 -29 30 -39 0 -18 -2 -18 -25 4 -14 13 -28 21
-31 18 -3 -4 7 -16 23 -28 28 -20 29 -23 22 -78 -3 -31 -7 -109 -8 -172 -1
-63 -4 -116 -6 -119 -3 -2 -18 11 -35 29 -16 18 -30 28 -30 22 0 -5 16 -24 35
-41 19 -17 35 -38 35 -48 0 -13 -9 -9 -36 18 -26 24 -33 28 -25 12 6 -12 21
-30 34 -40 23 -18 43 -53 30 -53 -4 0 -20 12 -35 27 -15 15 -28 22 -28 15 0
-6 16 -24 35 -39 19 -15 35 -36 35 -45 0 -26 -15 -22 -39 10 -11 15 -21 22
-21 15 0 -7 16 -28 37 -48 20 -19 33 -38 30 -42 -4 -3 -18 4 -31 16 l-23 22 3
-28 c1 -16 16 -40 33 -55 38 -34 40 -46 4 -24 -24 15 -23 13 5 -12 18 -16 32
-36 31 -43 -1 -8 3 -27 9 -42 18 -42 15 -52 -9 -31 -16 14 -21 15 -17 4 2 -8
14 -19 26 -25 12 -5 22 -16 22 -24 0 -11 -3 -11 -15 -1 -10 8 -15 9 -15 2 0
-6 10 -16 21 -23 14 -7 18 -14 11 -18 -8 -5 -5 -13 9 -25 21 -17 21 -17 14 14
-4 19 -2 36 6 46 10 12 9 13 -3 9 -21 -8 -47 113 -26 126 9 6 8 9 -7 9 -17 0
-17 2 -5 10 8 5 10 10 4 10 -16 0 -25 40 -11 41 8 0 8 2 -1 6 -6 2 -10 9 -6
14 3 5 1 9 -4 9 -5 0 -8 15 -7 33 1 17 -1 37 -4 42 -10 19 -8 85 3 85 8 0 8 2
0 8 -16 11 -25 42 -12 42 7 0 6 5 -2 15 -10 12 -10 15 1 16 10 0 11 2 2 6 -7
2 -13 9 -13 14 0 6 5 7 12 3 7 -5 8 -3 2 7 -13 21 -14 39 -2 39 6 0 4 7 -3 17
-12 15 -12 16 1 8 13 -8 13 -7 1 8 -7 9 -9 17 -4 17 5 0 8 27 7 60 -1 38 2 60
9 60 8 0 8 3 0 11 -15 15 -5 39 14 32 12 -5 12 -7 1 -14 -7 -5 -8 -9 -3 -9 6
0 9 -64 7 -179 -2 -128 1 -212 13 -293 9 -62 18 -123 19 -136 2 -12 6 -25 10
-29 3 -3 0 -13 -7 -21 -9 -12 -9 -14 0 -9 8 5 16 -6 23 -34 6 -23 16 -52 21
-66 5 -15 5 -22 0 -18 -5 3 -12 1 -16 -5 -3 -5 -1 -10 5 -10 6 0 33 -46 60
-102 53 -107 64 -162 33 -156 -23 4 -51 61 -58 119 -4 31 -10 46 -20 46 -8 0
-15 -4 -15 -9 0 -4 5 -8 10 -8 6 0 10 -5 10 -11 0 -18 -31 12 -42 41 -5 14 -9
27 -9 30 0 3 -6 12 -14 20 -11 13 -24 41 -65 145 -4 11 -13 36 -20 55 -7 19
-16 44 -20 55 -13 31 -33 111 -44 178 -2 12 -7 31 -12 41 -5 14 -4 17 5 12 9
-6 8 1 -3 21 -8 17 -15 39 -15 49 1 10 -3 30 -7 43 -5 18 -4 22 5 16 8 -5 7 3
-3 23 -19 36 -20 46 -5 36 8 -5 8 -1 0 14 -15 28 -14 45 2 36 10 -6 10 -4 0 7
-7 7 -13 22 -13 34 0 16 2 17 10 5 5 -8 10 -11 10 -7 0 4 -8 20 -17 35 -17 26
-17 26 1 12 17 -14 17 -13 2 24 -15 36 -15 38 1 25 15 -13 15 -12 4 9 -9 16
-11 45 -6 90 3 37 6 75 6 86 0 18 1 18 21 0 l22 -19 -17 25 c-24 35 -21 47 6
24 l22 -19 -22 25 c-29 33 -22 84 11 75 18 -5 19 -5 4 5 -24 15 -23 34 8 126
84 252 238 446 431 543 46 23 57 26 48 12 -3 -5 21 4 54 20 77 38 153 55 199
43z m1334 -5 c29 -6 71 -21 93 -32 22 -11 53 -22 69 -23 40 -5 116 -49 191
-111 123 -101 244 -296 296 -477 23 -77 23 -79 3 -93 -19 -15 -18 -15 2 -9 18
5 23 2 27 -21 3 -18 -1 -35 -11 -48 -16 -19 -16 -19 1 -6 21 17 22 8 1 -27
-11 -19 -12 -22 -1 -9 8 9 17 17 19 17 11 0 5 -56 -9 -80 -13 -21 -13 -23 0
-7 8 9 16 17 19 17 10 0 8 -109 -2 -115 -5 -3 -10 -11 -10 -16 0 -6 5 -7 12
-3 7 5 9 2 6 -7 -3 -8 -9 -23 -13 -34 -6 -16 -5 -17 4 -5 9 13 11 13 11 -2 0
-9 -4 -20 -10 -23 -5 -3 -10 -12 -10 -18 0 -7 4 -6 10 3 14 22 13 -5 -1 -32
-8 -15 -8 -19 0 -14 14 9 14 4 1 -29 -7 -17 -7 -24 0 -20 15 9 12 -7 -5 -29
-18 -23 -20 -40 -4 -30 8 4 9 -1 4 -16 -4 -12 -9 -37 -11 -54 -2 -17 -6 -42
-9 -56 -3 -14 -6 -34 -8 -45 -2 -11 -6 -26 -11 -33 -4 -6 -4 -16 -1 -22 9 -14
-10 -43 -29 -46 -18 -2 -22 11 -6 21 6 3 10 11 10 17 0 6 -9 -1 -21 -16 -11
-14 -25 -26 -30 -26 -17 0 -9 22 16 42 14 11 30 29 36 41 9 18 6 16 -20 -7
-29 -27 -31 -28 -31 -9 0 11 11 28 25 37 13 9 30 26 36 38 10 20 8 20 -18 -4
-16 -16 -32 -28 -36 -28 -17 0 -4 24 28 54 19 19 35 39 35 45 0 6 -13 -3 -30
-21 -24 -27 -29 -29 -30 -14 0 10 11 27 25 38 14 11 30 29 36 41 8 16 1 12
-25 -12 l-36 -35 0 90 c0 84 -12 233 -26 316 -5 33 -3 38 25 53 17 8 31 20 31
26 0 6 -12 1 -27 -11 -31 -24 -38 -19 -47 35 -5 39 -4 41 26 53 17 6 29 14 26
18 -4 3 -16 1 -27 -6 -22 -11 -41 -6 -41 11 0 5 6 9 13 9 7 0 22 7 33 15 18
14 17 14 -10 5 -19 -7 -33 -7 -39 -1 -13 13 0 31 23 31 10 0 21 4 25 9 3 6 -9
7 -30 4 -45 -7 -47 13 -2 26 l32 10 -34 -2 c-34 -2 -34 -2 -56 68 -12 39 -34
99 -48 134 -15 36 -27 66 -27 68 0 2 12 4 28 4 26 2 26 2 2 6 -48 8 -57 16
-25 23 l30 8 -32 1 c-40 1 -44 18 -5 24 22 3 19 4 -11 6 l-37 1 25 -49 c24
-49 52 -119 60 -154 2 -9 7 -22 10 -27 3 -5 8 -18 10 -27 3 -10 13 -48 24 -86
11 -37 22 -82 25 -100 10 -57 15 -80 21 -85 7 -7 -15 -32 -27 -32 -6 0 -5 7 2
15 11 13 10 14 -2 10 -15 -6 -18 2 -32 85 -3 14 -9 41 -15 59 -8 27 -8 37 2
43 8 5 6 8 -8 8 -17 0 -17 2 -5 10 13 8 12 10 -2 10 -10 0 -17 3 -16 8 4 18
-20 76 -78 191 -35 69 -61 128 -59 132 3 4 -2 10 -11 13 -8 3 -13 10 -9 15 3
5 0 13 -6 17 -8 5 -10 2 -4 -7 4 -8 -8 4 -26 26 -19 22 -43 49 -54 60 -11 11
-19 26 -17 32 2 7 -10 19 -25 26 -15 6 -36 20 -45 30 -10 9 -22 17 -28 17 -5
0 -10 7 -10 16 0 11 -6 15 -20 11 -13 -3 -18 -1 -13 6 4 7 0 8 -11 4 -10 -4
-15 -3 -11 3 4 6 -5 10 -20 10 -15 0 -34 4 -44 10 -14 7 -24 3 -46 -20 -16
-17 -33 -30 -39 -30 -5 0 0 10 12 23 12 13 22 28 22 34 0 24 37 28 112 12z
m-1509 -155 c-46 -136 53 -319 223 -412 l59 -31 -37 -1 c-21 0 -38 3 -38 8 0
4 -12 15 -26 26 -26 18 -26 18 -15 -2 15 -28 14 -31 -6 -28 -10 2 -22 16 -28
32 -5 16 -14 34 -18 41 -11 18 -72 59 -62 42 5 -7 -1 -5 -14 5 -12 11 -19 26
-16 33 3 9 0 11 -7 7 -8 -5 -9 -2 -5 9 4 10 2 16 -5 14 -6 -1 -13 4 -16 12 -3
9 0 11 9 7 8 -5 8 -2 -2 6 -18 16 -34 52 -18 42 6 -4 5 4 -2 17 -7 13 -12 30
-10 38 1 8 -2 10 -10 5 -8 -5 -9 -3 -3 7 5 8 9 32 9 54 0 33 36 115 50 115 2
0 -3 -21 -12 -46z m1611 5 c12 -21 18 -51 18 -89 0 -39 5 -60 13 -64 9 -3 13
-24 12 -65 -1 -34 2 -61 7 -61 9 0 2 142 -9 210 l-6 35 20 -40 c18 -35 20 -25
3 25 -2 8 4 4 14 -10 10 -14 24 -31 31 -38 15 -16 17 -26 3 -17 -5 3 -10 1
-10 -4 0 -6 10 -11 23 -12 21 0 21 -1 2 -9 -20 -8 -19 -9 1 -9 12 -1 27 -7 33
-15 10 -12 8 -15 -11 -19 -19 -4 -18 -5 7 -7 30 -2 30 -2 5 -10 -25 -8 -25 -8
5 -10 l30 -2 -30 -8 -30 -8 35 -2 35 -2 -35 -13 -35 -13 35 -2 c22 -2 28 -4
15 -7 -34 -8 -38 -20 -5 -15 18 3 30 0 30 -7 0 -6 -12 -12 -27 -12 -25 -2 -24
-2 7 -9 22 -5 27 -8 13 -9 -12 0 -25 -6 -29 -13 -5 -8 0 -9 14 -6 12 4 25 2
28 -3 3 -5 -4 -9 -15 -9 -11 0 -22 -4 -25 -8 -3 -5 9 -7 27 -5 l32 4 -30 -15
-30 -14 30 -2 30 -1 -30 -14 c-30 -14 -30 -14 -2 -9 16 4 27 2 27 -5 0 -6 -6
-11 -14 -11 -8 0 -17 -4 -20 -9 -3 -4 6 -6 19 -3 31 6 33 -6 3 -18 -23 -9 -23
-9 2 -10 25 -2 25 -2 -5 -16 l-30 -15 28 4 c15 2 30 0 33 -4 3 -5 -3 -9 -13
-9 -10 0 -25 -5 -33 -11 -11 -8 -7 -9 18 -4 18 4 32 2 32 -3 0 -5 -14 -12 -31
-16 -21 -4 -29 -10 -26 -20 3 -8 -1 -17 -9 -20 -11 -4 -14 4 -14 34 0 42 -7
46 -45 30 -14 -6 -15 -9 -5 -10 11 -1 9 -4 -5 -11 -17 -8 -15 -9 11 -6 44 4
39 -20 -5 -28 -31 -6 -33 -9 -16 -15 l20 -9 -20 -1 -20 -1 20 -9 c18 -8 17 -9
-7 -9 l-28 -1 -1 78 c-1 74 -15 206 -18 170 0 -10 -7 -18 -13 -18 -9 0 -8 -4
2 -10 12 -8 10 -10 -10 -10 l-25 -1 25 -10 c39 -16 6 -29 -75 -29 -49 0 -65 3
-55 10 12 8 12 10 -5 11 -13 0 -8 5 15 13 29 11 32 14 15 18 -17 5 -16 6 5 7
20 1 22 3 10 11 -13 8 -12 10 3 10 10 0 15 5 12 10 -3 6 2 10 12 10 15 0 16 2
3 10 -13 8 -12 10 3 10 10 0 16 4 13 9 -3 4 4 27 15 51 11 23 23 59 26 79 4
33 3 35 -11 18 -8 -11 -12 -26 -9 -35 4 -9 2 -13 -4 -9 -7 5 -9 -1 -6 -15 4
-19 3 -21 -7 -8 -10 13 -11 13 -6 -2 7 -24 -3 -50 -17 -41 -5 3 -7 2 -4 -4 8
-12 -21 -55 -33 -48 -4 3 -14 -3 -21 -12 -10 -12 -10 -14 -1 -9 27 16 10 -12
-33 -54 -25 -24 -45 -40 -45 -34 0 5 3 14 8 20 4 5 0 2 -9 -8 -20 -20 -34 -11
-16 10 11 13 9 14 -10 1 -13 -8 -23 -17 -23 -21 0 -5 -17 -8 -37 -8 l-37 0 60
36 c168 100 265 276 221 402 -17 49 -9 55 17 11z m-770 -20 c-5 -8 -1 -8 14 0
23 12 41 -3 37 -31 -2 -10 2 -15 9 -12 16 6 68 -14 78 -29 14 -23 8 -48 -14
-57 -18 -7 -27 -4 -42 13 -12 14 -17 16 -14 6 4 -9 1 -16 -7 -16 -8 0 -11 7
-7 16 5 14 3 14 -11 2 -15 -12 -17 -11 -17 8 0 14 -6 21 -20 21 -14 0 -20 7
-21 23 l-2 22 -4 -23 -5 -23 -19 22 c-25 29 -24 44 4 57 29 14 50 15 41 1z
m-923 -47 c-6 -12 -11 -27 -10 -34 0 -7 9 5 20 27 11 22 17 32 14 22 -3 -10
-7 -57 -9 -105 -2 -48 -1 -68 1 -44 4 41 23 51 23 12 0 -11 11 -44 24 -74 13
-30 22 -57 18 -60 -3 -3 3 -6 12 -6 13 0 10 -6 -13 -26 -17 -14 -31 -32 -31
-40 0 -8 -8 -14 -17 -13 -11 0 -13 3 -6 6 10 3 9 8 -3 20 -19 20 -27 12 -18
-21 5 -21 10 -25 30 -20 18 5 24 2 24 -10 0 -13 -6 -15 -26 -10 -20 5 -26 2
-31 -15 -6 -25 -19 -26 -64 -7 -32 13 -32 14 -9 18 25 4 25 4 -2 9 -22 5 -28
3 -28 -11 0 -25 -43 -45 -66 -31 -17 9 -15 11 11 11 28 1 29 2 8 10 -31 12
-29 24 2 18 13 -3 22 -1 19 3 -3 5 -14 9 -25 9 -11 0 -17 5 -14 10 3 6 18 8
33 5 27 -5 26 -5 -3 9 l-30 15 30 1 30 1 -30 14 -30 13 30 3 c24 1 26 3 8 6
-13 2 -23 9 -23 14 0 5 12 6 26 3 19 -5 25 -4 20 5 -4 6 -17 12 -29 12 -14 1
-9 4 13 9 31 7 32 7 8 9 -16 0 -28 6 -28 12 0 7 12 10 30 7 33 -5 29 7 -5 15
-14 3 -11 5 10 6 l30 2 -30 14 -30 13 30 2 c30 2 30 2 5 10 -25 8 -25 8 5 10
30 2 30 2 5 10 -25 8 -25 8 5 10 24 2 25 4 8 7 -30 6 -18 33 16 34 23 0 24 1
6 9 -19 8 -19 9 4 9 17 1 21 5 17 17 -3 8 4 28 16 44 24 33 36 33 19 2z m1207
-83 l34 0 -31 -28 c-17 -16 -31 -33 -31 -38 0 -4 6 -1 13 8 17 22 67 53 74 46
15 -16 14 -108 -2 -156 -14 -43 -26 -58 -67 -85 -31 -21 -45 -36 -36 -39 7 -3
-12 -5 -42 -5 -45 0 -50 2 -25 8 17 4 22 8 13 9 -20 1 -21 3 -12 25 3 9 14 16
23 16 14 0 14 2 1 10 -16 10 -15 11 20 28 25 11 25 11 -5 6 l-30 -5 30 16 c23
12 25 14 8 11 -13 -2 -26 0 -29 5 -3 5 4 9 16 9 12 0 30 5 41 10 27 15 44 3
27 -18 -11 -15 -11 -15 3 -5 9 7 19 10 22 6 4 -3 7 -1 7 5 0 7 -31 35 -70 63
-38 28 -70 55 -70 59 0 4 7 13 15 20 13 11 20 9 38 -9 35 -32 45 -25 12 9 -28
29 -28 29 -4 24 13 -3 39 -5 57 -5z m-213 -56 c-3 -15 -12 -31 -18 -35 -6 -4
-8 -10 -4 -15 10 -9 26 14 34 50 3 15 12 27 19 27 19 0 17 -19 -6 -58 -11 -18
-20 -45 -20 -60 0 -15 -4 -22 -8 -17 -11 16 -36 12 -44 -8 -6 -15 -18 -17 -70
-16 -65 3 -108 -6 -120 -24 -3 -6 -23 -10 -44 -9 -21 1 -50 -5 -66 -12 -22
-11 -29 -12 -38 -1 -7 9 -7 15 3 23 16 13 69 36 80 34 4 -1 7 3 7 8 0 6 5 10
11 10 5 0 8 -4 5 -8 -3 -5 1 -9 9 -9 8 0 15 4 15 8 0 8 79 25 95 20 33 -9 55
-10 55 -2 0 5 -5 13 -11 17 -15 9 -109 6 -123 -4 -6 -5 -36 -15 -68 -22 -63
-14 -118 -54 -101 -71 6 -6 9 -18 6 -25 -3 -8 2 -17 11 -20 9 -3 16 -10 16
-15 0 -6 -9 -5 -20 1 -11 6 -25 8 -30 5 -5 -3 -21 6 -36 20 -31 29 -36 31 -28
10 10 -24 0 -18 -25 16 l-24 32 25 -6 c18 -5 53 7 127 43 138 68 210 91 286
93 36 1 65 6 65 10 0 5 5 5 10 2 6 -3 10 3 10 14 0 12 5 21 11 21 7 0 9 -10 4
-27z m-1160 -129 c-16 -75 -39 -313 -31 -322 3 -2 -1 -14 -9 -26 -19 -26 -19
-55 -1 -75 8 -9 21 -65 31 -125 36 -232 120 -470 222 -626 58 -88 64 -102 52
-118 -13 -15 -12 -16 3 -4 15 12 18 11 24 -12 3 -13 3 -30 -1 -35 -9 -15 -28
-14 -19 2 4 6 4 9 -1 5 -14 -13 -34 12 -46 56 -7 22 -14 35 -16 29 -8 -23 18
-83 43 -99 14 -10 28 -33 34 -58 41 -160 182 -349 344 -461 l56 -38 0 -54 c0
-29 -3 -53 -6 -53 -21 0 -167 117 -241 193 -155 160 -238 327 -250 502 -4 61
-3 85 6 85 6 0 11 3 11 8 0 4 -47 7 -103 7 -133 0 -143 -7 -178 -130 -11 -37
-18 -50 -18 -34 -1 34 27 126 47 158 10 14 12 22 4 17 -14 -8 -41 -58 -53 -96
-7 -24 -7 -24 -8 5 0 17 10 54 24 83 28 59 26 67 -4 20 -11 -18 -21 -28 -21
-22 0 6 11 29 25 50 l25 39 -30 -35 c-37 -42 -38 -30 -4 30 24 42 24 43 3 25
-22 -20 -22 -20 -16 0 7 20 7 20 -8 1 -8 -11 -15 -25 -15 -30 0 -6 5 -4 10 4
5 8 10 11 10 5 0 -5 -5 -17 -10 -25 -9 -13 -10 -13 -10 0 0 12 -2 12 -9 1 -5
-8 -8 2 -6 28 1 22 10 52 19 66 10 15 16 29 13 31 -2 3 -14 -10 -26 -28 -11
-18 -21 -29 -21 -25 0 12 19 48 39 73 9 11 2 5 -15 -13 -26 -28 -33 -31 -38
-17 -4 9 4 35 18 59 22 40 18 50 -12 31 -7 -4 -11 -15 -8 -23 3 -8 1 -11 -4
-8 -17 10 -11 37 13 64 l22 26 -22 -19 c-32 -27 -29 -4 3 28 15 14 22 26 17
26 -5 0 -18 -9 -28 -20 -10 -11 -21 -18 -23 -15 -3 3 8 20 24 37 16 18 20 25
8 15 -11 -9 -23 -17 -26 -17 -3 0 -4 25 -4 55 1 37 6 59 16 66 13 9 12 10 -2
6 -22 -7 -21 32 2 51 8 8 9 10 2 7 -10 -5 -13 5 -11 47 3 75 13 91 52 83 24
-5 28 -4 17 4 -8 6 -25 11 -37 11 -13 0 -23 5 -23 10 0 6 8 10 18 10 14 0 15
2 2 10 -25 15 -2 24 35 13 19 -6 33 -7 30 -2 -3 4 -21 11 -40 15 -45 8 -47 28
-2 21 32 -5 32 -5 5 6 -16 6 -28 15 -28 19 0 5 12 6 28 3 l27 -5 -27 12 c-33
14 -38 32 -5 22 47 -15 51 -14 20 2 -40 21 -42 33 -5 27 l27 -4 -30 15 c-25
12 -26 15 -10 16 11 1 14 4 8 7 -23 9 -14 25 10 18 22 -7 22 -7 2 10 -13 11
-16 18 -8 21 7 3 9 12 6 21 -5 12 -3 14 8 8 12 -8 12 -6 0 8 -8 11 -9 17 -3
17 6 0 9 7 6 15 -4 8 -1 15 6 15 6 0 8 5 5 10 -3 6 -3 10 2 10 4 0 9 12 10 27
0 15 6 29 12 31 6 2 9 8 5 13 -3 5 0 9 6 9 6 0 9 4 6 9 -3 5 8 42 24 83 16 40
30 75 30 77 0 2 2 2 5 -1 3 -2 -2 -36 -10 -74z m2120 -32 c-2 -2 3 -11 11 -19
8 -9 13 -22 10 -29 -3 -8 -1 -14 5 -14 6 0 7 -4 4 -10 -3 -5 -2 -10 3 -10 15
0 23 -43 9 -52 -8 -5 -6 -8 7 -8 11 0 16 -3 13 -7 -4 -3 -2 -12 4 -20 9 -10 8
-13 0 -13 -8 0 -6 -6 4 -16 9 -9 14 -23 11 -30 -3 -8 -1 -14 4 -14 18 0 10
-17 -12 -28 -21 -10 -20 -11 7 -5 26 6 28 4 17 -9 -10 -13 -10 -17 0 -21 8 -3
4 -9 -12 -16 l-25 -11 28 3 c33 5 35 -6 5 -21 -21 -11 -21 -12 -3 -11 38 2 40
-2 10 -17 l-30 -14 28 5 c37 7 35 -12 -3 -20 -16 -4 -32 -11 -35 -16 -4 -5 5
-5 20 1 32 12 55 13 55 2 0 -5 -17 -13 -37 -19 l-38 -11 38 5 c37 5 54 -11 20
-20 -14 -4 -12 -5 5 -6 12 0 22 -5 22 -11 0 -5 -10 -10 -22 -10 -13 -1 -36 -7
-53 -15 -29 -14 -24 -14 36 0 29 7 36 2 43 -38 3 -16 0 -27 -7 -27 -8 0 -8 -3
1 -12 17 -17 16 -62 0 -52 -10 6 -10 4 -2 -7 6 -8 14 -24 17 -37 4 -19 2 -22
-11 -17 -14 5 -14 3 1 -13 16 -17 16 -20 2 -25 -8 -4 -23 -4 -32 0 -15 5 -14
3 2 -10 24 -20 39 -22 29 -4 -4 6 -3 9 1 5 5 -5 10 -20 11 -34 2 -20 0 -23
-10 -14 -10 8 -15 7 -19 -4 -4 -9 -1 -18 5 -22 7 -5 8 -2 3 7 -5 8 -5 11 -1 7
4 -3 8 -10 8 -15 0 -4 5 -17 10 -28 10 -19 10 -19 -8 -4 -36 30 -49 32 -21 2
33 -35 36 -54 5 -27 l-23 19 23 -26 c22 -25 28 -50 15 -62 -8 -9 -33 12 -33
27 0 6 7 2 15 -8 8 -11 15 -15 15 -10 0 6 -12 21 -27 35 -15 13 -21 16 -14 7
11 -14 11 -18 1 -18 -10 0 -9 -5 2 -17 27 -31 39 -63 32 -85 -5 -16 -8 -18
-15 -7 -5 8 -9 19 -9 24 0 6 5 3 10 -5 5 -8 10 -10 10 -4 0 7 -8 20 -17 31
-10 10 -15 14 -10 9 16 -21 6 -28 -15 -10 l-22 19 20 -30 c26 -38 38 -68 23
-59 -8 4 -9 -1 -4 -17 5 -17 0 -14 -19 14 -36 50 -41 47 -11 -5 28 -48 33 -72
10 -42 -15 19 -15 19 -9 -1 5 -17 2 -16 -15 5 -26 32 -27 20 -1 -22 11 -18 20
-40 20 -48 0 -8 -9 -1 -19 16 -11 18 -25 35 -32 40 -7 4 -4 -6 8 -22 11 -16
24 -40 27 -54 6 -21 4 -20 -13 8 -28 44 -33 40 -9 -8 11 -22 22 -59 24 -82 l4
-43 -15 46 c-8 25 -23 53 -33 63 -17 14 -16 10 4 -31 13 -26 25 -70 28 -98 7
-55 -3 -38 -24 44 -7 24 -25 57 -41 74 l-30 29 -89 -7 c-67 -5 -94 -4 -106 6
-8 7 -14 8 -13 3 4 -24 -2 -54 -16 -67 -8 -8 -12 -17 -9 -20 11 -11 -18 -49
-32 -43 -10 4 -12 2 -8 -6 4 -7 3 -8 -4 -4 -7 4 -12 13 -12 21 0 25 23 65 33
58 6 -3 7 -1 3 6 -5 7 15 46 47 94 30 45 65 105 76 133 21 47 24 50 53 46 21
-3 33 0 40 12 5 9 27 19 49 22 22 4 42 10 44 14 3 4 -11 4 -30 0 -19 -4 -35
-5 -35 -1 1 16 19 33 46 41 27 9 26 9 -8 4 -52 -7 -48 2 10 21 27 9 34 13 17
11 -16 -3 -38 -8 -47 -11 -13 -5 -18 -2 -18 8 0 9 -9 22 -20 30 -20 14 -19 15
19 21 31 5 40 11 45 32 4 16 17 29 37 36 16 6 28 12 26 14 -2 3 -16 0 -31 -5
-17 -7 -26 -7 -26 0 0 5 -11 21 -26 34 l-25 23 17 84 c25 125 30 400 10 524
-9 54 -18 110 -21 124 -3 14 6 3 20 -24 13 -27 23 -51 20 -54z m-1055 -47
l-22 -35 -114 0 c-69 0 -113 4 -109 9 3 6 -2 14 -12 19 -13 8 -4 12 43 22 32
7 68 17 79 23 11 6 49 13 85 16 76 7 83 -1 50 -54z m-776 -52 c31 -5 41 -12
50 -35 14 -37 24 -35 42 7 l14 35 755 0 755 0 0 -113 c0 -108 -1 -115 -25
-137 -18 -17 -25 -34 -25 -62 0 -22 4 -37 8 -34 5 3 7 19 4 37 -3 20 -1 29 5
26 6 -4 18 2 28 13 10 11 14 20 9 20 -17 0 21 20 39 20 9 0 26 -9 37 -20 24
-24 27 -14 3 12 -21 23 -2 24 25 1 22 -20 35 -90 20 -116 -11 -20 -31 -22 -61
-5 -21 11 -21 11 -2 19 20 8 20 8 0 8 -18 1 -18 3 4 14 14 6 27 19 29 27 4 11
0 10 -13 -3 -10 -10 -24 -16 -32 -13 -43 17 -60 16 -74 -1 -13 -16 -12 -17 4
-4 16 12 17 10 17 -27 l0 -40 43 4 c33 3 38 2 22 -6 -17 -9 -16 -9 8 -5 20 4
27 2 22 -6 -5 -8 -2 -8 11 -1 11 5 25 7 32 5 6 -3 12 0 12 6 0 6 10 11 23 10
l22 0 -23 -10 c-13 -5 -20 -14 -16 -20 5 -8 9 -8 14 1 4 7 6 -9 3 -36 -6 -49
-25 -84 -48 -84 -6 0 -22 -12 -36 -26 -15 -16 -30 -23 -44 -20 -19 5 -19 5 -1
-9 13 -10 24 -11 37 -5 22 12 29 13 29 1 0 -5 -11 -12 -24 -15 -13 -3 -32 -9
-42 -13 -12 -4 -15 -3 -10 5 4 7 3 12 -2 12 -6 0 -10 15 -9 34 1 29 3 32 12
19 10 -14 13 -13 18 6 3 11 1 19 -4 15 -5 -3 -9 2 -9 10 0 9 -6 16 -12 16 -9
0 -8 4 2 10 22 14 27 12 33 -9 3 -14 11 -18 26 -14 l20 5 -22 19 c-12 10 -17
18 -10 19 25 0 -46 60 -72 60 -17 0 -24 4 -19 12 4 7 3 8 -4 4 -17 -10 -15
-26 3 -26 13 0 15 -26 15 -171 0 -148 -2 -170 -15 -165 -10 3 -15 -1 -15 -13
0 -10 7 -24 15 -31 11 -9 15 -35 15 -107 0 -94 -1 -96 -37 -147 -20 -28 -40
-55 -45 -61 -5 -5 -8 220 -8 500 l1 510 -775 3 -774 2 5 -512 4 -513 -20 25
c-12 14 -32 41 -45 60 l-25 35 -2 277 c0 152 3 283 7 290 6 10 4 10 -9 -1 -9
-7 -17 -10 -17 -7 0 4 -10 1 -22 -5 -18 -10 -24 -8 -40 11 -10 12 -18 17 -18
11 0 -7 -4 -9 -10 -6 -18 11 -10 42 15 55 19 10 22 16 13 22 -10 6 -5 14 16
31 36 30 30 62 -10 54 -18 -3 -24 -1 -20 9 3 7 -2 18 -10 24 -11 10 -14 9 -14
-4 0 -13 -5 -16 -22 -10 -21 6 -21 6 -5 -10 18 -19 23 -41 7 -31 -5 3 -10 3
-10 0 0 -3 15 -13 33 -21 l32 -15 -45 6 c-24 3 -50 11 -57 17 -10 8 -13 7 -13
-3 -1 -19 -30 20 -30 39 0 8 15 28 33 45 20 19 25 28 13 24 -16 -7 -17 -5 -5
9 9 11 21 14 43 9 77 -16 80 -16 93 1 10 14 16 15 25 6 10 -10 10 -15 1 -20
-8 -5 -9 -13 -3 -22 14 -21 12 -114 -2 -128 -8 -8 -8 -15 3 -28 13 -16 12 -17
-10 -11 l-23 6 20 -20 c12 -10 31 -19 44 -18 13 0 17 3 11 6 -9 3 -13 37 -13
121 0 106 -2 118 -20 129 -10 7 -27 10 -36 6 -12 -4 -15 -3 -10 5 5 8 1 10
-10 5 -12 -4 -15 -3 -10 6 4 6 3 10 -4 9 -7 -2 -17 5 -23 14 -9 14 -8 21 5 34
16 16 18 16 43 0 14 -9 39 -36 57 -59 17 -23 27 -33 22 -22 -4 11 -10 50 -12
88 l-4 67 34 0 c18 0 51 -3 72 -7z m1506 -220 c2 -1015 7 -944 -67 -1045 -38
-53 -35 -58 15 -28 18 11 35 20 37 20 9 0 -39 -116 -71 -169 -104 -177 -309
-345 -489 -401 -22 -7 -71 -26 -109 -42 l-68 -30 -67 30 c-36 17 -78 34 -94
38 -15 3 -36 17 -47 31 -23 29 -55 113 -63 166 l-6 37 62 0 c54 1 60 2 45 14
-10 7 -18 26 -18 42 0 37 148 922 158 948 5 12 29 -96 66 -305 31 -178 68
-382 82 -454 31 -166 31 -208 2 -228 -21 -15 -11 -16 141 -16 l165 -1 -22 20
c-12 12 -22 26 -22 33 0 7 21 120 46 252 25 132 69 372 99 532 79 424 79 421
131 445 13 6 24 15 24 20 0 4 -62 8 -137 8 -123 -1 -136 -2 -118 -15 41 -29
45 -37 45 -83 0 -27 -11 -111 -25 -188 -27 -148 -64 -357 -96 -544 -30 -177
-49 -273 -54 -278 -3 -3 -5 -1 -5 4 0 10 -16 95 -99 534 -33 173 -62 329 -64
345 -3 17 -10 54 -16 84 -15 76 -15 80 20 112 l31 29 -161 0 c-89 0 -161 -3
-161 -8 0 -4 10 -12 23 -17 20 -9 22 -17 22 -80 0 -88 -157 -1015 -166 -981
-4 13 -14 82 -23 152 -10 71 -26 190 -36 264 -10 74 -22 160 -25 190 -4 30
-15 115 -26 188 -10 73 -19 151 -19 173 0 50 24 99 50 99 10 0 22 5 25 10 4 7
-57 10 -174 10 -167 0 -219 -8 -155 -24 18 -5 31 -20 44 -49 16 -36 71 -347
136 -762 9 -55 26 -164 40 -243 30 -178 30 -195 2 -215 -22 -15 -19 -16 54
-16 l76 -1 -20 -52 c-11 -29 -24 -61 -27 -72 -6 -16 -17 -11 -86 45 -92 74
-182 178 -231 264 -34 62 -67 145 -60 152 2 2 20 -6 40 -18 20 -12 39 -20 41
-17 3 2 -8 20 -24 39 -15 19 -37 52 -48 74 -19 38 -21 66 -26 568 l-6 527 755
0 754 0 0 -117z m499 -50 c1 -38 9 -94 15 -100 3 -3 0 -13 -7 -21 -6 -9 -7
-13 -1 -9 15 9 16 -55 1 -65 -8 -5 -7 -8 5 -8 17 0 19 -15 4 -39 -6 -9 -5 -12
1 -8 7 4 10 -20 9 -68 -1 -41 2 -75 6 -75 4 0 3 -11 -2 -24 -5 -13 -6 -27 -2
-31 3 -3 0 -10 -8 -15 -10 -7 -11 -10 -2 -10 6 0 12 -9 12 -20 0 -11 -6 -20
-12 -20 -9 0 -10 -2 -2 -8 17 -11 8 -100 -11 -114 -6 -5 -5 -8 2 -8 14 0 6
-31 -11 -42 -7 -5 -5 -8 4 -8 13 0 13 -1 0 -10 -9 -6 -11 -10 -3 -10 14 0 6
-31 -11 -42 -8 -5 -8 -8 0 -8 10 0 2 -53 -21 -140 -2 -8 -4 -19 -4 -24 -1 -4
-9 -5 -18 -2 -10 4 -14 4 -11 0 4 -4 3 -15 -3 -26 -16 -29 -21 -16 -8 23 23
72 31 89 43 82 7 -4 6 -1 -1 9 -7 8 -10 17 -7 20 3 3 7 21 10 39 2 19 6 43 8
54 19 94 28 239 24 380 -3 113 -1 165 6 166 6 0 5 3 -2 6 -6 2 -10 9 -6 14 3
5 1 9 -3 9 -14 0 -14 53 -1 62 9 5 7 8 -6 8 -20 0 -20 0 0 15 14 12 15 14 2 9
-22 -8 -29 46 -8 63 19 16 19 16 19 -4z m-2238 -158 c0 -5 14 -18 32 -27 37
-20 51 -22 42 -8 -3 6 -1 10 5 10 16 0 30 -45 27 -90 -2 -43 -7 -46 -39 -29
-15 8 -19 8 -14 0 4 -6 1 -11 -6 -11 -7 -1 -2 -7 12 -15 14 -8 21 -15 15 -15
-5 0 -2 -7 9 -15 15 -11 20 -31 23 -101 4 -74 2 -88 -14 -100 -24 -18 -34 -17
-27 1 4 8 1 15 -5 15 -6 0 -8 7 -4 17 4 11 3 14 -5 9 -7 -4 -12 -3 -12 3 0 5
5 13 10 16 6 3 10 11 10 17 0 7 -6 6 -15 -2 -21 -17 -19 -1 3 23 16 19 16 20
-5 8 -25 -13 -30 -3 -10 18 10 11 9 13 -5 8 -25 -9 -22 7 5 27 22 16 22 16 0
6 -27 -13 -41 4 -16 20 15 10 15 11 1 6 -22 -7 -30 4 -15 22 10 13 9 14 -2 7
-11 -6 -13 -4 -8 8 4 10 2 17 -4 17 -6 0 -9 6 -6 14 3 8 1 17 -6 20 -9 3 -8 8
3 15 13 9 13 11 -2 11 -11 0 -15 7 -13 25 1 14 -1 25 -4 25 -4 0 -7 9 -8 20
-1 14 5 20 20 21 21 1 20 2 -3 9 l-25 9 28 -2 c15 -1 28 -6 28 -12z m1846
-750 c-9 -104 -23 -156 -68 -254 -98 -212 -320 -421 -534 -501 -44 -17 -119
-49 -168 -72 l-87 -42 -55 27 c-59 29 -66 40 -36 59 18 11 16 14 -26 46 -24
19 -42 36 -40 39 3 3 39 -12 81 -31 l76 -36 48 24 c26 13 94 43 151 65 126 50
221 111 325 211 119 114 215 262 232 360 4 20 19 47 35 62 16 15 33 45 40 72
18 73 33 57 26 -29z m399 -42 c-15 -32 -39 -68 -54 -81 -19 -16 -21 -21 -8
-15 20 7 20 6 0 -27 -10 -18 -26 -36 -34 -38 -12 -4 -11 -1 3 15 14 17 15 20
2 20 -16 0 -19 -9 -30 -82 -8 -48 -30 -85 -50 -85 -23 0 -18 58 10 119 21 45
88 163 102 180 2 3 9 -1 16 -9 7 -8 8 -10 1 -7 -7 4 -14 -2 -17 -14 -5 -20 -5
-20 13 -4 11 10 17 22 14 27 -3 5 3 16 13 26 11 9 13 13 6 8 -16 -10 -25 -5
-15 9 12 17 47 33 50 24 2 -5 -8 -35 -22 -66z m-1554 -465 c-6 -6 -8 -17 -5
-25 5 -12 7 -12 15 -1 6 8 7 4 3 -12 -7 -30 11 -84 24 -76 8 6 23 -17 25 -39
2 -18 39 -54 49 -48 6 3 7 1 3 -5 -6 -9 19 -31 34 -29 3 0 15 -6 26 -13 18
-11 20 -17 11 -32 -7 -10 -16 -18 -20 -18 -5 0 -36 26 -69 58 -60 56 -69 55
-18 -2 14 -16 24 -32 23 -37 -2 -5 4 -9 13 -9 8 0 12 -4 9 -10 -3 -5 1 -10 9
-10 9 0 16 -4 16 -8 0 -4 14 -16 30 -26 17 -9 28 -21 25 -26 -3 -4 6 -7 19 -6
14 2 24 -1 23 -7 -1 -5 4 -12 11 -14 6 -3 12 0 12 6 0 6 5 11 11 11 5 0 7 -4
4 -10 -12 -19 71 -11 95 10 12 10 42 29 65 40 24 12 46 27 49 35 3 8 13 15 23
15 12 0 1 -16 -35 -50 -29 -27 -49 -50 -45 -50 4 0 -2 -7 -13 -15 -10 -8 -31
-15 -46 -15 -15 0 -29 -4 -33 -10 -3 -5 -15 -6 -28 -1 -12 4 -28 6 -34 4 -7
-3 -13 1 -13 9 0 11 -2 11 -9 0 -11 -18 -64 4 -117 49 -21 19 -33 27 -26 17 9
-12 10 -18 2 -23 -7 -4 -10 -16 -7 -26 8 -32 -9 -22 -61 36 -70 76 -95 154
-90 273 3 58 10 100 23 127 l19 40 4 -34 c2 -18 -1 -38 -6 -43z m1081 17 c-10
-8 -14 -15 -10 -15 4 0 3 -10 -4 -21 -6 -12 -7 -19 -1 -15 6 3 20 -13 31 -37
24 -50 26 -61 9 -51 -9 5 -9 2 1 -9 10 -13 10 -17 1 -17 -9 0 -9 -4 1 -17 12
-15 12 -16 -5 -9 -19 6 -19 6 -3 -12 22 -24 22 -33 0 -25 -11 4 -14 3 -9 -5 4
-7 0 -12 -11 -13 -15 -1 -15 -2 -2 -6 23 -6 13 -38 -18 -58 -25 -16 -25 -25
-7 -70 7 -18 6 -19 -10 -6 -18 15 -18 56 -2 106 6 17 3 20 -19 20 -21 0 -23
-2 -10 -11 8 -6 15 -16 15 -22 0 -17 -18 -24 -26 -11 -4 8 -3 9 4 5 7 -4 12
-3 12 2 0 6 -7 13 -16 16 -9 4 -13 2 -8 -5 4 -8 -1 -9 -17 -4 -13 4 -25 8 -26
9 -5 4 32 91 40 94 4 2 3 10 -4 18 -6 8 -9 25 -7 39 3 14 1 25 -6 25 -7 0 -6
4 2 8 9 6 10 16 5 33 -18 52 -11 64 36 64 32 0 47 5 60 21 12 17 17 18 19 7 2
-8 -5 -21 -15 -28z m-273 -164 c0 -5 -22 -31 -50 -59 -45 -46 -56 -69 -51
-109 1 -7 -6 -13 -16 -13 -21 0 -6 -16 22 -23 11 -3 3 -4 -18 -2 -31 2 -36 0
-27 -10 6 -8 19 -11 28 -8 13 4 11 0 -5 -18 -21 -21 -26 -22 -54 -12 -26 10
-29 10 -19 -3 7 -8 20 -14 28 -14 12 0 13 -3 5 -11 -8 -8 -17 -8 -33 1 -12 6
-24 9 -27 6 -3 -3 5 -10 18 -14 23 -9 22 -10 -18 -31 -26 -12 -44 -17 -48 -11
-3 6 2 10 12 10 15 0 16 2 3 10 -21 13 -33 12 -24 -2 5 -7 2 -9 -9 -5 -9 3
-17 2 -19 -3 -2 -5 -19 -12 -38 -15 -42 -7 -49 -13 -30 -25 8 -6 10 -10 4 -10
-6 0 -14 3 -18 8 -11 10 -96 9 -96 -1 0 -5 -7 -6 -16 -3 -14 5 -15 4 -4 -9 7
-8 8 -15 2 -15 -5 0 -15 6 -21 14 -16 19 -53 17 -46 -3 4 -11 3 -12 -10 -1 -8
7 -15 9 -15 5 0 -5 -9 0 -20 10 -20 18 -21 18 -14 -1 7 -17 6 -17 -9 -5 -9 7
-17 10 -17 6 0 -4 -6 -2 -13 4 -8 6 -18 7 -22 3 -5 -4 -5 -2 -2 4 4 7 0 15 -9
18 -10 4 -13 2 -8 -6 5 -8 2 -9 -10 -5 -10 4 -22 7 -27 7 -5 0 -9 8 -9 18 0
14 -2 15 -10 2 -7 -12 -10 -11 -16 5 -5 11 -15 27 -23 35 -13 13 -14 13 -8 -2
12 -34 -15 -18 -78 45 -84 84 -112 177 -55 177 12 0 18 -4 15 -10 -3 -5 -1
-10 5 -10 6 0 8 -5 3 -12 -15 -25 -12 -38 7 -28 14 8 19 5 23 -12 4 -14 11
-19 23 -14 14 5 15 4 4 -9 -10 -12 -10 -15 0 -15 7 0 10 -7 7 -14 -4 -11 -1
-13 10 -9 11 4 14 2 9 -5 -4 -7 -1 -12 9 -12 9 0 13 4 10 10 -3 6 1 7 10 4 14
-6 14 -8 -2 -21 -16 -13 -15 -14 12 -8 29 6 29 6 10 -9 -16 -13 -17 -15 -2
-10 10 4 17 1 17 -6 0 -7 7 -10 15 -6 8 3 15 1 15 -4 0 -6 7 -10 16 -10 9 0
12 -5 8 -12 -4 -7 -3 -8 5 -4 6 4 18 3 26 -4 10 -8 15 -8 21 1 4 8 3 9 -4 5
-7 -4 -12 -2 -12 3 0 13 3 13 24 5 9 -3 12 -12 9 -22 -5 -14 -3 -15 8 -4 7 6
17 12 22 12 4 0 5 -6 1 -12 -6 -10 -4 -10 7 0 16 15 33 16 23 0 -5 -7 -3 -8 6
-3 7 4 16 2 21 -6 7 -12 9 -11 9 1 0 13 1 13 10 0 5 -8 10 -10 10 -4 0 6 12
12 26 12 19 0 24 -5 20 -17 -3 -9 2 -6 10 7 17 23 54 30 54 10 0 -6 6 -4 13 6
8 11 20 17 28 14 8 -3 20 2 28 9 10 11 16 11 21 3 5 -8 9 -6 14 6 3 9 9 14 13
11 3 -4 12 1 19 11 11 14 14 14 14 2 1 -8 6 -4 11 10 7 18 12 21 18 11 6 -9
10 -7 14 9 3 13 10 19 17 15 6 -3 10 -3 9 2 -4 20 2 27 12 13 9 -13 10 -12 5
2 -6 20 10 34 18 16 3 -7 3 -2 0 11 -4 16 -3 21 5 17 6 -4 11 -1 11 8 0 8 8
19 18 25 9 5 17 13 17 18 0 4 3 7 7 6 4 -2 4 5 1 14 -4 11 -3 14 5 9 7 -4 12
-3 12 3 0 5 19 21 43 35 48 29 47 29 47 17z"/>
</g>
</svg>
